<svg width="57" height="57" viewBox="0 0 57 57" fill="none" xmlns="http://www.w3.org/2000/svg">
<path fill-rule="evenodd" clip-rule="evenodd" d="M19.7597 6.80056L24.8523 11.6796L24.8903 11.7169C26.2823 13.1117 26.8541 15.0455 26.8541 16.788C26.8541 18.5305 26.2822 20.4643 24.8905 21.8591L22.4126 24.3423C22.9959 26.3861 24.3862 28.6403 26.322 30.593C28.2627 32.5507 30.5161 33.9679 32.5962 34.5596L35.0725 32.0779C36.4649 30.6824 38.3972 30.1079 40.1398 30.1079C41.8824 30.1079 43.8146 30.6824 45.2071 32.0779C45.2071 32.0779 45.2071 32.0779 45.2071 32.0779L50.2864 37.1681C51.6782 38.5629 52.2501 40.4967 52.25 42.2392C52.25 43.9817 51.6781 45.9154 50.2863 47.3102C46.4988 51.1059 41.5578 52.2499 39.2929 52.2499C35.787 52.2499 32.6206 52.0342 28.9752 50.3288C25.4211 48.6661 21.5888 45.6729 16.4496 40.5224C11.2407 35.3022 8.27986 31.0333 6.64197 27.2823C4.98159 23.4798 4.75 20.3633 4.75 17.6365C4.75 15.7291 4.98971 13.9032 5.78808 12.0366C6.57845 10.1886 7.84819 8.45939 9.67687 6.62673C11.1086 5.19184 13.0825 4.68871 14.8205 4.75586C16.552 4.82275 18.4136 5.4644 19.7597 6.80056ZM14.6372 9.50232C13.8511 9.47195 13.3008 9.71976 13.0393 9.98184C11.4818 11.5427 10.635 12.783 10.1554 13.9044C9.68377 15.0072 9.5 16.1507 9.5 17.6365C9.5 20.0002 9.69214 22.3976 10.9951 25.3815C12.3205 28.4169 14.8625 32.2071 19.812 37.1673C24.8311 42.1974 28.1937 44.7191 30.988 46.0263C33.691 47.2908 36.0265 47.4999 39.2929 47.4999C40.4968 47.4999 44.1598 46.7252 46.9239 43.9551C47.2252 43.6531 47.5 43.0416 47.5 42.2391C47.5 41.4365 47.2253 40.8251 46.9241 40.5232L41.8447 35.4331C41.5441 35.1318 40.9367 34.8579 40.1398 34.8579C39.3429 34.8579 38.7355 35.1318 38.4349 35.433L35.0488 38.8265C34.5205 39.356 33.7737 39.6056 33.0332 39.5003C29.3226 38.9726 25.7002 36.7127 22.9486 33.9371C20.1979 31.1623 17.9895 27.5413 17.4719 23.9102C17.3666 23.1713 17.6147 22.4258 18.1419 21.8975L21.528 18.504C21.8293 18.202 22.1041 17.5906 22.1041 16.788C22.1041 15.9974 21.8376 15.3925 21.5418 15.0861L16.4566 10.2142L16.4185 10.1769C16.0729 9.83052 15.4208 9.53259 14.6372 9.50232Z" fill="black"/>
</svg>
