<svg width="28" height="28" viewBox="0 0 28 28" fill="none" xmlns="http://www.w3.org/2000/svg">
<g clip-path="url(#clip0_302_3536)">
<path d="M27.4155 16.806L22.7772 9.07493L26.9398 7.91865C27.1459 7.8614 27.3209 7.72462 27.4261 7.5384C27.5314 7.35218 27.5583 7.13178 27.5011 6.92567C27.4438 6.71957 27.3071 6.54465 27.1208 6.43939C26.9346 6.33414 26.7142 6.30717 26.5081 6.36442L21.3337 7.8017L21.3326 7.80203L14.5721 9.6799V0.806555C14.5721 0.592644 14.4871 0.387493 14.3358 0.236235C14.1846 0.0849761 13.9794 0 13.7655 0C13.5516 0 13.3465 0.0849761 13.1952 0.236235C13.0439 0.387493 12.959 0.592644 12.959 0.806555V10.128L5.78368 12.121L5.78255 12.1213L0.591183 13.5633C0.489131 13.5917 0.393661 13.6398 0.310223 13.7051C0.226786 13.7703 0.157016 13.8513 0.104897 13.9435C0.052777 14.0357 0.0193289 14.1373 0.00646195 14.2424C-0.00640504 14.3476 0.00156108 14.4542 0.0299055 14.5563C0.0582499 14.6583 0.106417 14.7538 0.171658 14.8372C0.236899 14.9207 0.317935 14.9904 0.410139 15.0425C0.502344 15.0947 0.603911 15.1281 0.709042 15.141C0.814173 15.1539 0.920809 15.1459 1.02286 15.1175L4.25909 14.2186L0.115534 21.1254C0.0403354 21.2507 0.000600028 21.3941 0.000571763 21.5403C0.00209392 23.1279 0.633841 24.65 1.757 25.7721C2.88015 26.8942 4.40283 27.5245 5.99046 27.5245C7.57808 27.5245 9.10076 26.8942 10.2239 25.7721C11.3471 24.65 11.9788 23.1279 11.9803 21.5403C11.9803 21.3941 11.9406 21.2507 11.8654 21.1254L7.22704 13.3942L19.8091 9.89933L15.6656 16.806C15.5904 16.9313 15.5507 17.0748 15.5506 17.2209C15.5522 18.8085 16.1839 20.3306 17.3071 21.4527C18.4303 22.5747 19.9529 23.205 21.5405 23.205C23.1282 23.205 24.6508 22.5747 25.774 21.4526C26.8971 20.3305 27.5288 18.8084 27.5304 17.2208C27.5304 17.0747 27.4907 16.9313 27.4155 16.806ZM5.99043 25.9169C4.97 25.9155 3.98203 25.5581 3.19682 24.9064C2.41162 24.2547 1.87837 23.3495 1.68901 22.3468H10.2918C10.1025 23.3495 9.56926 24.2547 8.78405 24.9065C7.99885 25.5582 7.01086 25.9155 5.99043 25.9169V25.9169ZM9.74941 20.7337H2.23156L5.99043 14.4684L9.74941 20.7337ZM21.5405 10.149L25.2995 16.4143H17.7816L21.5405 10.149ZM21.5406 21.5976C20.5202 21.5962 19.5322 21.2388 18.747 20.5871C17.9617 19.9354 17.4285 19.0302 17.2391 18.0275H25.8421C25.6527 19.0302 25.1195 19.9354 24.3342 20.5871C23.549 21.2388 22.561 21.5962 21.5406 21.5976V21.5976Z" fill="#171717"/>
</g>
<defs>
<clipPath id="clip0_302_3536">
<rect width="27.5305" height="27.53" fill="white"/>
</clipPath>
</defs>
</svg>
