<svg width="18" height="18" viewBox="0 0 18 18" fill="none" xmlns="http://www.w3.org/2000/svg">
<path d="M15.75 1.87495C15.75 1.46077 15.4142 1.125 15 1.125H12C11.5858 1.125 11.25 1.46077 11.25 1.87495V3.375H15.75V1.87495Z" fill="#171717"/>
<path d="M6.75 1.87495C6.75 1.46077 6.41423 1.125 6.00005 1.125H2.99995C2.58577 1.125 2.25 1.46077 2.25 1.87495V3.375H6.75V1.87495Z" fill="#171717"/>
<path d="M0 4.12494V15.3749C0 15.7891 0.33577 16.125 0.749954 16.125H2.25V16.875H3.75005V16.125H14.25V16.875H15.75V16.125H17.25C17.6642 16.125 18 15.7891 18 15.3749V4.12494H0ZM6.00005 14.625L7.49995 10.125H5.24995L10.5 5.62498L9 10.125H11.25L6.00005 14.625Z" fill="#171717"/>
</svg>
