<svg width="16" height="16" viewBox="0 0 16 16" fill="none" xmlns="http://www.w3.org/2000/svg">
<g clip-path="url(#clip0_139_3462)">
<path d="M14.2761 0H1.724C1.26692 0.000493823 0.828699 0.182288 0.505493 0.505493C0.182288 0.828699 0.000493823 1.26692 0 1.724L0 10.9189C0.000519241 11.376 0.182325 11.8142 0.505529 12.1374C0.828732 12.4606 1.26694 12.6423 1.724 12.6428H5.70203L7.01941 15.2777C7.09782 15.4785 7.23157 15.653 7.40514 15.7808C7.57871 15.9087 7.78497 15.9847 8 16C8.21502 15.9847 8.42129 15.9087 8.59486 15.7808C8.76842 15.653 8.90218 15.4785 8.98059 15.2777L10.2981 12.6428H14.2761C14.7332 12.6423 15.1713 12.4605 15.4945 12.1373C15.8177 11.8142 15.9995 11.376 16 10.9189V1.724C15.9995 1.26694 15.8177 0.828732 15.4946 0.505529C15.1714 0.182325 14.7332 0.000519241 14.2761 0V0ZM15.0625 10.9189C15.0623 11.1274 14.9793 11.3273 14.8319 11.4747C14.6845 11.6222 14.4846 11.7051 14.2761 11.7053H10.0084C9.92136 11.7053 9.83602 11.7296 9.76196 11.7753C9.68791 11.8211 9.62806 11.8866 9.58912 11.9645L8.14208 14.8584C8.1093 14.9332 8.06085 15 8 15.0544C7.93915 15 7.8907 14.9332 7.85792 14.8584L6.41088 11.9645C6.37197 11.8866 6.31214 11.8211 6.23809 11.7754C6.16405 11.7296 6.07873 11.7053 5.99168 11.7053H1.724C1.51549 11.7051 1.31559 11.6222 1.16814 11.4748C1.02069 11.3273 0.937748 11.1274 0.937501 10.9189V1.724C0.937724 1.51548 1.02066 1.31556 1.16811 1.16811C1.31556 1.02066 1.51548 0.937724 1.724 0.937501H14.2761C14.4846 0.937749 14.6845 1.0207 14.8319 1.16814C14.9794 1.31559 15.0623 1.51549 15.0625 1.724V10.9189Z" fill="#171717"/>
</g>
<defs>
<clipPath id="clip0_139_3462">
<rect width="16" height="16" fill="white"/>
</clipPath>
</defs>
</svg>
