<svg width="30" height="28" viewBox="0 0 30 28" fill="none" xmlns="http://www.w3.org/2000/svg">
<g clip-path="url(#clip0_139_3479)">
<path d="M15 27.5307L14.0644 26.926C10.8822 24.9092 7.93924 22.5378 5.29196 19.8572C1.78048 16.1663 0 12.5468 0 9.09969C0.00275997 6.68714 0.962364 4.37419 2.66829 2.66826C4.37423 0.96233 6.68717 0.0027254 9.09972 -3.45658e-05C11.2628 -0.00303991 13.3556 0.767793 15 2.17317C16.3228 1.04598 17.9408 0.321236 19.6626 0.0846471C21.3844 -0.151942 23.1379 0.109526 24.7157 0.838123C26.2935 1.56672 27.6297 2.73197 28.5662 4.19603C29.5026 5.6601 30.0002 7.36174 30 9.09969C30 12.5465 28.2195 16.1658 24.7083 19.8572C22.061 22.5377 19.118 24.9092 15.9358 26.926L15 27.5307ZM9.09972 1.69808C7.13736 1.70026 5.256 2.48077 3.8684 3.86836C2.48081 5.25596 1.7003 7.13732 1.69812 9.09968C1.69812 12.0965 3.32133 15.3222 6.52243 18.6864C9.07696 21.2701 11.9162 23.5558 14.9856 25.4999L15 25.5087L15.0141 25.4999C18.0837 23.5558 20.9231 21.2701 23.4778 18.6864C26.679 15.3217 28.3019 12.0963 28.3019 9.09969C28.2997 7.13734 27.5191 5.25601 26.1316 3.86842C24.744 2.48083 22.8626 1.70031 20.9003 1.69809C19.7313 1.69434 18.5785 1.9707 17.5383 2.50402C16.8216 2.87097 16.1691 3.35177 15.6064 3.92769L15 4.54737L14.3933 3.92768C13.831 3.35175 13.1788 2.87102 12.4622 2.50429C11.4219 1.97084 10.2689 1.69439 9.09972 1.69808Z" fill="#171717"/>
</g>
<defs>
<clipPath id="clip0_139_3479">
<rect width="30" height="27.5308" fill="white"/>
</clipPath>
</defs>
</svg>
