<svg width="28" height="28" viewBox="0 0 28 28" fill="none" xmlns="http://www.w3.org/2000/svg">
<path d="M20.9611 0.0111084H7.01665C3.15305 0.0111084 0 3.16416 0 7.02776V20.9945C0 24.8359 3.15305 27.9889 7.01665 27.9889H20.9833C24.8469 27.9889 28 24.8358 28 20.9722V7.02776C27.9778 3.16416 24.8247 0.0111084 20.9611 0.0111084ZM9.32593 22.6598H5.3291V11.1134H9.32593V22.6598ZM7.30531 9.33704C6.17288 9.33704 5.26249 8.42665 5.26249 7.29422C5.26249 6.16178 6.17288 5.25139 7.30531 5.25139C8.43775 5.25139 9.34814 6.16178 9.34814 7.29422C9.32593 8.42665 8.41554 9.33704 7.30531 9.33704ZM22.6709 22.6598H22.6487H19.318V17.0642C19.318 15.7098 19.1404 13.9778 17.2974 13.9778C15.41 13.9778 15.0991 15.4433 15.0991 16.9754V22.6598H11.7684V11.1134H14.8771V12.6677H14.9659C15.4544 11.7795 16.5868 11.0912 18.3632 11.0912C22.027 11.0912 22.6709 13.2006 22.6709 16.3315V22.6598Z" fill="#656565"/>
</svg>
