<svg width="18" height="18" viewBox="0 0 18 18" fill="none" xmlns="http://www.w3.org/2000/svg">
<g clip-path="url(#clip0_302_3440)">
<path d="M11.4001 4.5H6.6001V5.10001H11.4001V4.5Z" fill="#171717"/>
<path d="M5.10001 6.29999H4.5V11.1H5.10001V6.29999Z" fill="#171717"/>
<path d="M2.39981 1.79999H1.7998V2.4H2.39981V1.79999Z" fill="#171717"/>
<path d="M0 6.59998V7.79996C0 7.63438 0.134402 7.49998 0.299988 7.49998H0.9C1.06559 7.49998 1.19999 7.63438 1.19999 7.79996C1.19999 7.96555 1.06559 8.09995 0.9 8.09995H0.299988C0.134402 8.09995 0 7.96555 0 7.79996V8.99999C0 8.8344 0.134402 8.7 0.299988 8.7H0.9C1.06559 8.7 1.19999 8.8344 1.19999 8.99999C1.19999 9.16557 1.06559 9.29997 0.9 9.29997H0.299988C0.134402 9.29997 0 9.16557 0 8.99999V10.2C0 10.0344 0.134402 9.89999 0.299988 9.89999H0.9C1.06559 9.89999 1.19999 10.0344 1.19999 10.2C1.19999 10.3656 1.06559 10.5 0.9 10.5H0.299988C0.134402 10.5 0 10.3656 0 10.2V11.4H1.8V6.59998H0Z" fill="#171717"/>
<path d="M18.0002 7.20001H16.2002V8.4H18.0002V7.20001Z" fill="#171717"/>
<path d="M11.4001 12.3H6.6001V12.9H11.4001V12.3Z" fill="#171717"/>
<path d="M16.2001 1.79999H15.6001V2.4H16.2001V1.79999Z" fill="#171717"/>
<path d="M2.39981 15.6H1.7998V16.2H2.39981V15.6Z" fill="#171717"/>
<path d="M11.7002 5.70001H6.30021H5.7002V6V11.4V11.7H6.30021H11.7002H12.3002V11.4V6V5.70001H11.7002ZM11.3918 8.21193C11.3267 8.87223 10.8815 9.57304 10.2014 10.0869C9.57441 10.5606 8.86461 10.8027 8.23911 10.8027C7.7144 10.8027 7.24879 10.6326 6.94072 10.2858C6.68123 9.99393 6.5663 9.61413 6.60832 9.18783C6.67343 8.52752 7.11861 7.82672 7.79871 7.31284C8.95162 6.44163 10.3838 6.35402 11.0594 7.11393C11.3189 7.40611 11.4338 7.78562 11.3918 8.21193Z" fill="#171717"/>
<path d="M13.4999 6.29999H12.8999V11.1H13.4999V6.29999Z" fill="#171717"/>
<path d="M18 4.5V1.79968C18 0.807293 17.1927 0 16.2003 0H13.2C13.0344 0 12.9 0.134402 12.9 0.299988V1.19999H5.10001V0.299988C5.10001 0.134402 4.96561 0 4.80002 0H1.79968C0.807293 0 0 0.807293 0 1.79968V5.99998H2.09999C2.26557 5.99998 2.39998 6.13438 2.39998 6.29996V11.7C2.39998 11.8656 2.26557 12 2.09999 12H0V16.2002C0 17.1927 0.807293 18 1.79968 18H4.79999C4.96557 18 5.09998 17.8656 5.09998 17.7V16.8H12.9V17.7C12.9 17.8656 13.0344 18 13.2 18H16.2003C17.1927 18 18 17.1927 18 16.2003V11.1H16.2V12.3H16.8C16.9656 12.3 17.1 12.4344 17.1 12.6C17.1 12.7656 16.9656 12.9 16.8 12.9H16.2V13.8C16.2 13.9655 16.0656 14.0999 15.9 14.0999C15.7344 14.0999 15.6 13.9655 15.6 13.8V10.8C15.6 10.6344 15.7344 10.5 15.9 10.5H18V9H15.9C15.7344 9 15.6 8.8656 15.6 8.70001V6.90001C15.6 6.73443 15.7344 6.60002 15.9 6.60002H18V5.10001H16.2H15.3C15.1344 5.10001 15 4.96561 15 4.80002C15 4.63444 15.1344 4.5 15.3 4.5H15.9V3.89999C15.9 3.7344 16.0344 3.6 16.2 3.6C16.3656 3.6 16.5 3.7344 16.5 3.89999V4.5H18ZM2.99999 16.5C2.99999 16.6656 2.86559 16.8 2.7 16.8H1.50001C1.33443 16.8 1.20002 16.6656 1.20002 16.5V15.3C1.20002 15.1344 1.33443 15 1.50001 15H2.7C2.86559 15 2.99999 15.1344 2.99999 15.3V16.5ZM2.99999 2.7C2.99999 2.86559 2.86559 2.99999 2.7 2.99999H1.50001C1.33443 2.99999 1.20002 2.86559 1.20002 2.7V1.50001C1.20002 1.33443 1.33443 1.20002 1.50001 1.20002H2.7C2.86559 1.20002 2.99999 1.33443 2.99999 1.50001V2.7ZM14.4 7.80001C14.5656 7.80001 14.7 7.93441 14.7 8.1C14.7 8.26559 14.5656 8.39999 14.4 8.39999H14.1V9H14.4C14.5656 9 14.7 9.1344 14.7 9.29999C14.7 9.46557 14.5656 9.59998 14.4 9.59998H14.1V10.2H14.4C14.5656 10.2 14.7 10.3344 14.7 10.5C14.7 10.6656 14.5656 10.8 14.4 10.8H14.1V11.4C14.1 11.5656 13.9656 11.7 13.8 11.7H12.9V12C12.9 12.1655 12.7656 12.2999 12.6 12.2999H12V13.1999C12 13.3655 11.8656 13.4999 11.7 13.4999H11.1V13.7999C11.1 13.9655 10.9656 14.0999 10.8 14.0999C10.6344 14.0999 10.5 13.9655 10.5 13.7999V13.5H9.9V13.8C9.9 13.9656 9.7656 14.1 9.60001 14.1C9.43443 14.1 9.30002 13.9656 9.30002 13.8V13.5H8.70001V13.8C8.70001 13.9656 8.56561 14.1 8.40002 14.1C8.23444 14.1 8.10003 13.9656 8.10003 13.8V13.5H7.50002V13.8C7.50002 13.9656 7.36562 14.1 7.20004 14.1C7.03445 14.1 6.90005 13.9656 6.90005 13.8V13.5H6.3C6.13441 13.5 6.00001 13.3656 6.00001 13.2V12.3H5.4C5.23441 12.3 5.10001 12.1656 5.10001 12V11.7H4.20001C4.03443 11.7 3.90002 11.5656 3.90002 11.4V10.8H3.6C3.43441 10.8 3.30001 10.6656 3.30001 10.5C3.30001 10.3344 3.43441 10.2 3.6 10.2H3.89999V9.60001H3.6C3.43441 9.60001 3.30001 9.46561 3.30001 9.30002C3.30001 9.13444 3.43441 9.00004 3.6 9.00004H3.89999V8.40002H3.6C3.43441 8.40002 3.30001 8.26562 3.30001 8.10003C3.30001 7.93445 3.43441 7.80005 3.6 7.80005H3.89999V7.2H3.6C3.43441 7.2 3.30001 7.0656 3.30001 6.90001C3.30001 6.73443 3.43441 6.60002 3.6 6.60002H3.89999V6.00001C3.89999 5.83443 4.03439 5.70002 4.19998 5.70002H5.09998V5.4C5.09998 5.23441 5.23438 5.10001 5.39996 5.10001H5.99998V4.20001C5.99998 4.03443 6.13438 3.90002 6.29996 3.90002H6.89998V3.6C6.89998 3.43441 7.03438 3.30001 7.19996 3.30001C7.36555 3.30001 7.49995 3.43441 7.49995 3.6V3.89999H8.1V3.6C8.1 3.43441 8.2344 3.30001 8.39999 3.30001C8.56557 3.30001 8.69998 3.43441 8.69998 3.6V3.89999H9.29999V3.6C9.29999 3.43441 9.43439 3.30001 9.59998 3.30001C9.76556 3.30001 9.89997 3.43441 9.89997 3.6V3.89999H10.5V3.6C10.5 3.43441 10.6344 3.30001 10.8 3.30001C10.9656 3.30001 11.1 3.43441 11.1 3.6V3.89999H11.7C11.8656 3.89999 12 4.03439 12 4.19998V5.09998H12.6C12.7656 5.09998 12.9 5.23438 12.9 5.39996V5.69995H13.8C13.9656 5.69995 14.1 5.83436 14.1 5.99994V6.59995H14.4C14.5656 6.59995 14.7 6.73436 14.7 6.89994C14.7 7.06553 14.5656 7.19993 14.4 7.19993H14.1V7.79994H14.4V7.80001ZM15.3 15H16.5C16.6656 15 16.8 15.1344 16.8 15.3V16.5C16.8 16.6656 16.6656 16.8 16.5 16.8H15.3C15.1344 16.8 15 16.6656 15 16.5V15.3C15 15.1344 15.1344 15 15.3 15ZM15.3 2.99999C15.1344 2.99999 15 2.86559 15 2.7V1.50001C15 1.33443 15.1344 1.20002 15.3 1.20002H16.5C16.6656 1.20002 16.8 1.33443 16.8 1.50001V2.7C16.8 2.86559 16.6656 2.99999 16.5 2.99999H15.3Z" fill="#171717"/>
<path d="M16.2001 15.6H15.6001V16.2H16.2001V15.6Z" fill="#171717"/>
<path d="M10.6106 7.5129C10.4234 7.30172 10.1213 7.20001 9.76938 7.20001C9.27107 7.20001 8.67349 7.4043 8.16049 7.7919C7.61149 8.20681 7.25448 8.75072 7.20529 9.24751C7.17981 9.5064 7.24161 9.7218 7.3892 9.8877C7.8425 10.398 8.96451 10.2696 9.8393 9.6087C10.3883 9.19379 10.7453 8.64989 10.7945 8.1531C10.82 7.89421 10.7581 7.6788 10.6106 7.5129ZM9.60017 9.00001H8.40018C8.2346 9.00001 8.1002 8.86561 8.1002 8.70002C8.1002 8.53443 8.2346 8.40003 8.40018 8.40003H9.60017C9.76576 8.40003 9.90016 8.53443 9.90016 8.70002C9.90016 8.86561 9.76576 9.00001 9.60017 9.00001Z" fill="#171717"/>
</g>
<defs>
<clipPath id="clip0_302_3440">
<rect width="18" height="18" fill="white"/>
</clipPath>
</defs>
</svg>
