<svg width="20" height="20" viewBox="0 0 20 20" fill="none" xmlns="http://www.w3.org/2000/svg">
<path d="M5.3125 6.5625C4.23536 6.56349 3.20263 6.99182 2.44098 7.75348C1.67932 8.51513 1.25099 9.54786 1.25 10.625C1.25 11.7906 2.70625 14.8875 5.04688 18.7C5.0745 18.7457 5.11347 18.7836 5.16 18.8098C5.20654 18.8361 5.25907 18.8499 5.3125 18.8499C5.36593 18.8499 5.41846 18.8361 5.465 18.8098C5.51153 18.7836 5.5505 18.7457 5.57812 18.7C7.92188 14.8875 9.375 11.7937 9.375 10.625C9.37401 9.54786 8.94568 8.51513 8.18402 7.75348C7.42237 6.99182 6.38964 6.56349 5.3125 6.5625ZM5.3125 12.8125C4.87985 12.8125 4.45692 12.6842 4.09719 12.4438C3.73746 12.2035 3.45708 11.8618 3.29151 11.4621C3.12595 11.0624 3.08263 10.6226 3.16703 10.1982C3.25144 9.77391 3.45978 9.38413 3.7657 9.0782C4.07163 8.77228 4.46141 8.56394 4.88574 8.47953C5.31007 8.39513 5.74991 8.43845 6.14962 8.60401C6.54933 8.76958 6.89097 9.04996 7.13134 9.40969C7.37171 9.76942 7.5 10.1924 7.5 10.625C7.49934 11.205 7.26866 11.761 6.85857 12.1711C6.44847 12.5812 5.89246 12.8118 5.3125 12.8125Z" fill="#656565"/>
<path d="M18.75 4.375H13.4375V6.5625C13.4375 6.64538 13.4046 6.72487 13.346 6.78347C13.2874 6.84208 13.2079 6.875 13.125 6.875H9.375C9.29212 6.875 9.21263 6.84208 9.15403 6.78347C9.09542 6.72487 9.0625 6.64538 9.0625 6.5625V4.375H3.75V6.2125C4.25112 6.03156 4.77972 5.93853 5.3125 5.9375C6.55525 5.93899 7.74667 6.43333 8.62542 7.31208C9.50417 8.19083 9.99851 9.38225 10 10.625C10 11.9656 8.60313 14.7188 7.38125 16.875H18.75V4.375ZM17.1875 15.625H11.875C11.7921 15.625 11.7126 15.5921 11.654 15.5335C11.5954 15.4749 11.5625 15.3954 11.5625 15.3125C11.5625 15.2296 11.5954 15.1501 11.654 15.0915C11.7126 15.0329 11.7921 15 11.875 15H12.8125V11.6919L12.4084 12.0959C12.3495 12.1529 12.2706 12.1844 12.1886 12.1836C12.1067 12.1829 12.0283 12.1501 11.9704 12.0921C11.9124 12.0342 11.8796 11.9558 11.8789 11.8739C11.8781 11.7919 11.9096 11.713 11.9666 11.6541L12.9041 10.7166C12.9627 10.658 13.0421 10.6251 13.125 10.6251C13.2079 10.6251 13.2873 10.658 13.3459 10.7166L14.2834 11.6541C14.3133 11.6829 14.3371 11.7174 14.3535 11.7555C14.3698 11.7936 14.3785 11.8346 14.3788 11.8761C14.3792 11.9176 14.3713 11.9588 14.3556 11.9972C14.3399 12.0356 14.3167 12.0705 14.2873 12.0998C14.258 12.1292 14.2231 12.1524 14.1847 12.1681C14.1463 12.1838 14.1051 12.1917 14.0636 12.1913C14.0221 12.191 13.9811 12.1823 13.943 12.166C13.9049 12.1496 13.8704 12.1258 13.8416 12.0959L13.4375 11.6919V15H15.625V11.6919L15.2209 12.0959C15.162 12.1529 15.0831 12.1844 15.0011 12.1836C14.9192 12.1829 14.8408 12.1501 14.7829 12.0921C14.7249 12.0342 14.6921 11.9558 14.6914 11.8739C14.6906 11.7919 14.7221 11.713 14.7791 11.6541L15.7166 10.7166C15.7752 10.658 15.8546 10.6251 15.9375 10.6251C16.0204 10.6251 16.0998 10.658 16.1584 10.7166L17.0959 11.6541C17.1258 11.6829 17.1496 11.7174 17.166 11.7555C17.1823 11.7936 17.191 11.8346 17.1913 11.8761C17.1917 11.9176 17.1838 11.9588 17.1681 11.9972C17.1524 12.0356 17.1292 12.0705 17.0998 12.0998C17.0705 12.1292 17.0356 12.1524 16.9972 12.1681C16.9588 12.1838 16.9176 12.1917 16.8761 12.1913C16.8346 12.191 16.7936 12.1823 16.7555 12.166C16.7174 12.1496 16.6829 12.1258 16.6541 12.0959L16.25 11.6919V15H17.1875C17.2704 15 17.3499 15.0329 17.4085 15.0915C17.4671 15.1501 17.5 15.2296 17.5 15.3125C17.5 15.3954 17.4671 15.4749 17.4085 15.5335C17.3499 15.5921 17.2704 15.625 17.1875 15.625Z" fill="#656565"/>
<path d="M5.3125 12.1875C6.17544 12.1875 6.875 11.4879 6.875 10.625C6.875 9.76206 6.17544 9.0625 5.3125 9.0625C4.44956 9.0625 3.75 9.76206 3.75 10.625C3.75 11.4879 4.44956 12.1875 5.3125 12.1875Z" fill="#656565"/>
<path d="M9.6875 4.375H12.8125V6.25H9.6875V4.375Z" fill="#656565"/>
<path d="M12.7439 3.75L12.2439 1.25H10.2564L9.75635 3.75H12.7439Z" fill="#656565"/>
<path d="M18.5095 3.75L17.0095 1.25H12.8813L13.3813 3.75H18.5095Z" fill="#656565"/>
<path d="M9.61836 1.25H5.49023L3.99023 3.75H9.11836L9.61836 1.25Z" fill="#656565"/>
</svg>
