<svg width="23" height="30" viewBox="0 0 23 30" fill="none" xmlns="http://www.w3.org/2000/svg">
<path d="M11.9531 0.160156C5.91797 0.160156 0 4.14453 0 10.6484C0 14.75 2.28516 17.0938 3.69141 17.0938C4.27734 17.0938 4.62891 15.5117 4.62891 15.043C4.62891 14.5156 3.22266 13.3438 3.22266 11.0586C3.22266 6.37109 6.79688 3.03125 11.4258 3.03125C15.4688 3.03125 18.3984 5.31641 18.3984 9.47656C18.3984 12.582 17.168 18.3828 13.125 18.3828C11.6602 18.3828 10.3711 17.3281 10.3711 15.8633C10.3711 13.6367 11.9531 11.4688 11.9531 9.18359C11.9531 5.31641 6.44531 6.01953 6.44531 10.707C6.44531 11.7031 6.5625 12.7578 7.03125 13.6953C6.21094 17.1523 4.57031 22.3672 4.57031 25.9414C4.57031 27.0547 4.6875 28.1094 4.80469 29.2227C4.98047 29.457 4.92188 29.457 5.21484 29.3398C8.14453 25.2969 8.08594 24.4766 9.375 19.2031C10.1367 20.5508 11.9531 21.3125 13.4766 21.3125C19.6875 21.3125 22.5 15.2188 22.5 9.76953C22.5 3.96875 17.4609 0.160156 11.9531 0.160156Z" fill="#FBEDEA"/>
</svg>
