<svg width="18" height="18" viewBox="0 0 18 18" fill="none" xmlns="http://www.w3.org/2000/svg">
<path d="M9.00052 0C4.65853 0 1.13916 3.51937 1.13916 7.86136C1.13916 10.8317 2.78564 13.4134 5.21449 14.7511L5.12204 18L8.83135 15.7139C8.88732 15.7152 8.94329 15.7227 9.00052 15.7227C13.3425 15.7227 16.8619 12.2033 16.8619 7.86136C16.8619 3.51937 13.3425 0 9.00052 0ZM10.0017 12.4423H7.98735V5.95828H10.0017V12.4423ZM8.98103 5.16397C8.34394 5.16397 7.92006 4.71241 7.93389 4.1552C7.92069 3.5722 8.34394 3.13385 8.99423 3.13385C9.6439 3.13385 10.0565 3.5722 10.0697 4.1552C10.069 4.71241 9.64264 5.16397 8.98103 5.16397Z" fill="#CC1D3E"/>
</svg>
