<svg width="23" height="23" viewBox="0 0 23 23" fill="none" xmlns="http://www.w3.org/2000/svg">
<g clip-path="url(#clip0_169_5)">
<path d="M22.5425 7.58163L21.5941 13.3485C21.5495 13.6366 21.4096 13.8985 21.1997 14.087C20.9897 14.2756 20.7234 14.3786 20.4484 14.3775H6.6598L6.38609 16.0148H19.5286C20.2208 16.0706 20.6918 16.5893 20.6998 17.2585C20.6521 17.9935 20.1588 18.4936 19.5286 18.5038H4.99053C4.8194 18.4957 4.65172 18.45 4.49812 18.3695C4.34451 18.289 4.20834 18.1755 4.09822 18.0361C3.98811 17.8968 3.90646 17.7347 3.85845 17.5601C3.81044 17.3855 3.79712 17.2022 3.81933 17.0219L4.45585 13.4195L3.50107 3.32362L0.813374 2.42639C0.521423 2.32101 0.27873 2.10061 0.135405 1.8107C-0.00791929 1.52079 -0.0409309 1.18351 0.0431867 0.868504C0.143452 0.559038 0.350938 0.301727 0.623468 0.148877C0.895997 -0.00397391 1.21312 -0.0408919 1.51036 0.0456271L4.94597 1.20982C5.15723 1.29163 5.34322 1.43359 5.48356 1.62016C5.62389 1.80673 5.71318 2.03071 5.74162 2.26756L5.94053 4.27322L21.5225 6.13188C22.2386 6.29071 22.63 6.89392 22.5425 7.58163ZM8.55344 21.0991C8.55312 21.4737 8.44824 21.8397 8.25203 22.151C8.05583 22.4622 7.77712 22.7048 7.45114 22.8479C7.12516 22.991 6.76654 23.0282 6.42061 22.955C6.07468 22.8817 5.75698 22.7011 5.50767 22.4362C5.25835 22.1712 5.08861 21.8337 5.01991 21.4663C4.95121 21.0989 4.98663 20.7182 5.12169 20.3722C5.25675 20.0262 5.48539 19.7304 5.77871 19.5224C6.07203 19.3143 6.41685 19.2033 6.7696 19.2033C7.00453 19.2033 7.23714 19.2526 7.45409 19.3483C7.67103 19.444 7.86804 19.5843 8.03379 19.761C8.19954 19.9378 8.33077 20.1476 8.41994 20.3784C8.50912 20.6092 8.55449 20.8564 8.55344 21.1059V21.0991ZM19.2151 21.0991C19.2148 21.4737 19.1099 21.8397 18.9137 22.151C18.7175 22.4622 18.4388 22.7048 18.1128 22.8479C17.7868 22.991 17.4282 23.0282 17.0823 22.955C16.7364 22.8817 16.4187 22.7011 16.1694 22.4362C15.92 22.1712 15.7503 21.8337 15.6816 21.4663C15.6129 21.0989 15.6483 20.7182 15.7834 20.3722C15.9184 20.0262 16.1471 19.7304 16.4404 19.5224C16.7337 19.3143 17.0785 19.2033 17.4313 19.2033C17.6666 19.2028 17.8996 19.2518 18.117 19.3473C18.3344 19.4428 18.5319 19.5829 18.6981 19.7597C18.8643 19.9366 18.996 20.1465 19.0855 20.3775C19.1751 20.6085 19.2207 20.8561 19.2199 21.1059L19.2151 21.0991Z" fill="white"/>
</g>
<defs>
<clipPath id="clip0_169_5">
<rect width="22.5534" height="23" fill="white"/>
</clipPath>
</defs>
</svg>
