<svg width="15" height="13" viewBox="0 0 15 13" fill="none" xmlns="http://www.w3.org/2000/svg">
<path d="M9.43901 3.72756L9.55543 3.96319L9.81553 4.0009L13.0146 4.46473C13.499 4.53498 13.6928 5.12695 13.3338 5.47117L13.3338 5.47115L13.3305 5.47433L11.0182 7.73214L10.8303 7.91555L10.8746 8.17431L11.4203 11.3598L11.4207 11.3618C11.5056 11.8456 10.9952 12.2144 10.5648 11.9863L10.5631 11.9855L7.70502 10.4848L7.47258 10.3628L7.24014 10.4848L4.38337 11.9848C4.38321 11.9849 4.38305 11.9849 4.38289 11.985C3.95268 12.2089 3.44393 11.8397 3.52493 11.3592C3.52496 11.3591 3.52498 11.3589 3.525 11.3588L4.07052 8.17431L4.11485 7.91555L3.92701 7.73214L1.61598 5.47564C1.26548 5.12736 1.46529 4.53421 1.94416 4.46473C1.94417 4.46473 1.94417 4.46473 1.94418 4.46473L5.14328 4.0009L5.40338 3.96319L5.5198 3.72757L6.95224 0.828574L6.95225 0.828577L6.95344 0.826142C7.1665 0.389007 7.79232 0.389007 8.00537 0.826142L8.00537 0.826145L8.00657 0.828574L9.43901 3.72756Z" fill="#171717" stroke="black"/>
</svg>
