<svg width="20" height="20" viewBox="0 0 20 20" fill="none" xmlns="http://www.w3.org/2000/svg">
<path d="M7.75635 0H10.35V3.13792H7.75635V0Z" fill="#65DAC4"/>
<path d="M13.4462 6.35919C15.0711 6.35919 16.5751 6.88562 17.7977 7.7763V0.58592C17.7977 0.262336 17.5353 0 17.2117 0H11.5218V3.72384C11.5218 4.04742 11.2595 4.30976 10.9359 4.30976H7.17039C6.8468 4.30976 6.58447 4.04742 6.58447 3.72384V0H0.894514C0.57093 0 0.308594 0.262336 0.308594 0.58592V16.9031C0.308594 17.2267 0.57093 17.4891 0.894514 17.4891H7.04672C4.15883 12.6666 7.79341 6.30353 13.4462 6.35919Z" fill="#65DAC4"/>
<path d="M19.3674 11.8106L13.8605 17.3175C13.6317 17.5463 13.2607 17.5462 13.0319 17.3175L9.89402 14.1795C9.66516 13.9507 9.66543 13.5795 9.89402 13.3509L11.6691 11.5758C11.8979 11.347 12.2691 11.3472 12.4977 11.5758L13.4462 12.5244L17.1902 8.78032C13.1631 5.70615 7.1821 8.64826 7.21203 13.7653C7.21199 17.2083 10.0031 19.9994 13.4462 19.9994C17.6335 20.0572 20.7266 15.7564 19.3674 11.8106Z" fill="#65DAC4"/>
<path d="M13.8603 13.7673C13.6315 13.9961 13.2605 13.9961 13.0317 13.7673L12.0832 12.8187L11.1367 13.7652L13.446 16.0745L18.617 10.9035C18.7696 10.7509 18.7696 10.5036 18.617 10.3511L18.2229 9.95702C18.0704 9.80449 17.8231 9.80449 17.6705 9.95702L13.8603 13.7673Z" fill="#65DAC4"/>
</svg>
