<svg width="25" height="22" viewBox="0 0 25 22" fill="none" xmlns="http://www.w3.org/2000/svg">
<g clip-path="url(#clip0_139_2435)">
<path d="M0.44157 10.4382L6.20207 12.5882L8.43174 19.7588C8.46462 19.8649 8.52305 19.9613 8.60191 20.0396C8.68076 20.1178 8.77763 20.1754 8.88399 20.2075C8.99035 20.2395 9.10294 20.2449 9.21188 20.2232C9.32082 20.2015 9.42276 20.1534 9.50874 20.0831L12.7197 17.4654C12.8835 17.332 13.0869 17.2564 13.2981 17.2505C13.5093 17.2446 13.7165 17.3087 13.8875 17.4328L19.679 21.6376C19.7707 21.7042 19.8776 21.7469 19.99 21.7616C20.1025 21.7763 20.2168 21.7626 20.3225 21.7218C20.4283 21.681 20.5222 21.6143 20.5956 21.5279C20.669 21.4415 20.7195 21.3381 20.7427 21.2271L24.9853 0.819467C25.0101 0.699993 25.0022 0.576047 24.9625 0.460663C24.9228 0.345279 24.8528 0.242719 24.7597 0.163767C24.6667 0.0848136 24.5541 0.0323848 24.4338 0.0119925C24.3135 -0.00839973 24.19 0.00399789 24.0761 0.0478819L0.43482 9.16798C0.306242 9.21759 0.195794 9.30513 0.118134 9.41899C0.040475 9.53284 -0.000722738 9.66762 9.59665e-06 9.80543C0.000741931 9.94325 0.0433697 10.0776 0.122235 10.1906C0.2011 10.3036 0.312472 10.39 0.44157 10.4382ZM8.07241 11.4437L19.3306 4.50981C19.372 4.48419 19.4215 4.4749 19.4694 4.48375C19.5173 4.49261 19.5602 4.51897 19.5898 4.55771C19.6193 4.59645 19.6334 4.64479 19.6292 4.69333C19.6251 4.74187 19.603 4.78713 19.5673 4.82031L10.2761 13.457C9.94978 13.7605 9.73882 14.1678 9.67916 14.6094L9.36266 16.9549C9.35381 17.0212 9.32239 17.0824 9.27369 17.1282C9.22499 17.1741 9.16199 17.2018 9.09528 17.2066C9.02858 17.2114 8.96224 17.1931 8.90745 17.1548C8.85265 17.1164 8.81273 17.0604 8.79441 16.9961L7.57716 12.719C7.50954 12.4815 7.52133 12.2284 7.61072 11.9982C7.70011 11.768 7.86223 11.5733 8.07241 11.4437Z" fill="white"/>
</g>
<defs>
<clipPath id="clip0_139_2435">
<rect width="25" height="21.7667" fill="white"/>
</clipPath>
</defs>
</svg>
