<svg width="23" height="25" viewBox="0 0 23 25" fill="none" xmlns="http://www.w3.org/2000/svg">
<g clip-path="url(#clip0_139_2438)">
<path d="M22.6625 14.4729C23.4077 8.20028 22.3045 4.24023 20.3146 2.44911L20.3156 2.44807C17.1039 -0.6107 6.25718 -1.06344 2.41473 2.58544C0.689181 4.37033 0.0813856 6.98989 0.0147756 10.2329C-0.0518344 13.4769 -0.130929 19.5538 5.53178 21.2024H5.537L5.5318 23.7199C5.5318 23.7199 5.4933 24.7399 6.1448 24.9449C6.88997 25.1864 7.22718 24.7128 9.54492 21.9444C11.9554 22.1741 14.3874 21.9893 16.7354 21.398C17.5181 21.1357 21.9465 20.5498 22.6625 14.4729L22.6625 14.4729ZM9.92687 20.1731C9.92687 20.1731 7.47382 23.2318 6.71096 24.0259C6.46118 24.284 6.18746 24.2601 6.19162 23.748C6.19162 23.4119 6.21036 19.5684 6.21036 19.5684C1.40938 18.1925 1.69247 13.0179 1.7445 10.3109C1.79654 7.60292 2.29194 5.38506 3.75315 3.89158C7.12415 0.730825 16.6334 1.4375 19.0563 3.71465C22.0183 6.34046 20.964 13.7589 20.9702 14.0118C20.3614 19.0844 16.7729 19.406 16.1131 19.6256C14.0933 20.1363 12.0049 20.3211 9.92687 20.1731H9.92687Z" fill="white"/>
<path d="M11.2839 4.48584C11.203 4.4896 11.1266 4.52442 11.0706 4.58305C11.0146 4.64167 10.9834 4.71961 10.9834 4.80066C10.9834 4.88172 11.0146 4.95966 11.0706 5.01828C11.1266 5.07691 11.203 5.11173 11.2839 5.11549C14.3926 5.13943 16.9529 7.30627 16.981 11.2809C16.98 11.3217 16.9872 11.3623 17.0023 11.4003C17.0173 11.4382 17.0398 11.4728 17.0684 11.5019C17.0971 11.531 17.1313 11.554 17.169 11.5697C17.2068 11.5853 17.2473 11.5931 17.2881 11.5928C17.3289 11.5924 17.3693 11.5839 17.4067 11.5676C17.4442 11.5514 17.478 11.5277 17.5061 11.4982C17.5343 11.4686 17.5562 11.4336 17.5706 11.3954C17.585 11.3572 17.5915 11.3165 17.5898 11.2757H17.5888C17.5555 6.993 14.76 4.50977 11.2839 4.48584Z" fill="white"/>
<path d="M15.3731 10.6221C15.3711 10.6628 15.3772 10.7034 15.3911 10.7416C15.405 10.7798 15.4264 10.8149 15.4541 10.8447C15.4818 10.8745 15.5151 10.8985 15.5522 10.9152C15.5893 10.9319 15.6294 10.941 15.67 10.942C15.7107 10.9429 15.7512 10.9357 15.789 10.9208C15.8268 10.9059 15.8613 10.8836 15.8904 10.8551C15.9195 10.8267 15.9425 10.7927 15.9583 10.7552C15.974 10.7177 15.982 10.6774 15.9819 10.6367C16.0329 8.27525 14.5769 6.33009 11.8408 6.12506C11.7596 6.12344 11.681 6.15312 11.6211 6.20795C11.5612 6.26278 11.5248 6.33855 11.5193 6.41955C11.5138 6.50054 11.5397 6.58054 11.5916 6.64295C11.6435 6.70535 11.7175 6.74538 11.7981 6.75471C14.171 6.93476 15.421 8.55417 15.3731 10.6221H15.3731Z" fill="white"/>
<path d="M14.7172 13.3082C14.5219 13.1811 14.287 13.1293 14.0563 13.1625C13.8257 13.1956 13.6149 13.3113 13.4631 13.4882L13.0104 14.0742C12.9272 14.1644 12.8245 14.2345 12.7102 14.2792C12.5959 14.3239 12.4729 14.3421 12.3506 14.3323C9.21375 13.5028 8.3749 10.2203 8.3749 10.2203C8.36503 10.0953 8.38213 9.96966 8.42505 9.85187C8.46796 9.73407 8.53569 9.62688 8.62364 9.53755L9.18979 9.06921C9.36267 8.90529 9.47421 8.68711 9.50583 8.45099C9.53745 8.21486 9.48726 7.97502 9.3636 7.7714C8.92339 6.97454 8.40385 6.22417 7.81288 5.5317C7.68408 5.36342 7.49628 5.2502 7.28732 5.21486C7.07837 5.17952 6.86378 5.22468 6.68679 5.34125H6.67744C5.77719 5.86787 4.79161 6.85346 5.10694 7.86819C5.64501 8.93808 6.63372 12.3486 9.78511 14.9255C11.2394 16.088 12.8653 17.0177 14.6048 17.6814L14.6142 17.696C15.5946 18.0228 16.5479 16.9987 17.0568 16.0714V16.0641C17.1698 15.8826 17.2139 15.6666 17.1811 15.4553C17.1482 15.244 17.0406 15.0516 16.8778 14.913C16.2187 14.3005 15.4941 13.7623 14.7172 13.3082L14.7172 13.3082Z" fill="white"/>
<path d="M12.2694 8.44804C13.2696 8.50632 13.7546 9.02877 13.8066 10.1018C13.8072 10.1427 13.8161 10.183 13.8326 10.2204C13.8491 10.2578 13.873 10.2915 13.9028 10.3195C13.9326 10.3475 13.9677 10.3692 14.0061 10.3833C14.0444 10.3975 14.0852 10.4037 14.1261 10.4018C14.1669 10.3998 14.207 10.3897 14.2438 10.3719C14.2806 10.3542 14.3135 10.3292 14.3405 10.2985C14.3675 10.2678 14.3881 10.232 14.4009 10.1932C14.4138 10.1544 14.4187 10.1134 14.4154 10.0726C14.3488 8.6718 13.6182 7.89124 12.3027 7.81838C12.2213 7.8174 12.1426 7.84796 12.0832 7.90366C12.0237 7.95936 11.9881 8.03588 11.9838 8.11723C11.9795 8.19857 12.0069 8.27842 12.0601 8.34008C12.1133 8.40174 12.1883 8.44042 12.2694 8.44804H12.2694Z" fill="white"/>
</g>
<defs>
<clipPath id="clip0_139_2438">
<rect width="22.8964" height="25" fill="white"/>
</clipPath>
</defs>
</svg>
